<?xml version="1.0" encoding="UTF-8"?>
<svg id="_レイヤー_2" data-name=" レイヤー 2" xmlns="http://www.w3.org/2000/svg" viewBox="0 0 195.91 194.58">
  <defs>
    <style>
      .cls-1 {
        fill: #fff;
      }

      .cls-2 {
        fill: #0016f5;
      }
    </style>
  </defs>
  <rect class="cls-2" width="195.91" height="194.58" rx="18.29" ry="18.29"/>
  <g>
    <path class="cls-1" d="M64.58,171.33c-12.7-17.54-14.45-30.74-13.38-39.8,2.41-20.66,7.59-28.85,10.96-35.69,6.08-12.36,6.71-19.93,4.86-32.93-2.32-16.33-11.63-27.87-18.26-34.32h-28c6.62,6.45,15.95,17.99,18.26,34.32,1.84,13,1.22,20.59-4.86,32.93-3.37,6.84-8.55,15.02-10.96,35.69-1.05,9.06.68,22.26,13.38,39.8h28Z"/>
    <path class="cls-1" d="M166.66,58.25c-13.4-22.33-36.73-27.11-49.59-28.96-18.91-2.71-33.87-2.04-43.36-.68,5.63,7.8,14.91,17.48,16.63,32.7,3.56,31.35-10.12,29.19-14.85,60.64-2.97,19.76,2.48,32.18,13.1,40.41,13.54,10.49,31.51,12.33,50.69,8.22,9.55-2.04,21.92-8.22,30.14-24.66,9.86-19.74,13.7-60.28-2.74-87.68h-.01ZM152.96,103.46c.05,14.37-6.58,29.89-11.78,35.1-9.11,9.11-22.7,8.86-30.65,4.59-6.19-3.33-10.15-8.07-10.15-16.32,0-15.15,10.84-24.55,13.47-37.74,2.63-13.19-2.15-32.41-.62-32.22,10.41,1.3,19.18,4.11,24.66,9.59,8.22,8.22,15,20.59,15.07,36.99h0Z"/>
  </g>
</svg>