<?xml version="1.0" encoding="UTF-8"?>
<svg id="_レイヤー_2" data-name="レイヤー_2" xmlns="http://www.w3.org/2000/svg" viewBox="0 0 450 129">
  <defs>
    <style>
      .cls-1 {
        font-family: Futura-Bold, Futura;
        font-size: 136.06px;
        font-weight: 700;
        letter-spacing: -.03em;
      }

      .cls-1, .cls-2 {
        fill: #181818;
      }
    </style>
  </defs>
  <text class="cls-1" transform="translate(140.03 116.31)"><tspan x="0" y="0">Tree</tspan></text>
  <g>
    <path class="cls-2" d="M47.58,118.38c-9.27-12.8-10.55-22.44-9.77-29.05,1.76-15.08,5.54-21.06,8-26.05,4.44-9.02,4.9-14.55,3.55-24.04-1.69-11.92-8.49-20.34-13.33-25.05H15.59c4.83,4.71,11.64,13.13,13.33,25.05,1.34,9.49.89,15.03-3.55,24.04-2.46,4.99-6.24,10.96-8,26.05-.77,6.61.5,16.25,9.77,29.05h20.44Z"/>
    <path class="cls-2" d="M122.09,35.84c-9.78-16.3-26.81-19.79-36.2-21.14-13.8-1.98-24.72-1.49-31.65-.5,4.11,5.69,10.88,12.76,12.14,23.87,2.6,22.88-7.39,21.31-10.84,44.26-2.17,14.42,1.81,23.49,9.56,29.5,9.88,7.66,23,9,37,6,6.97-1.49,16-6,22-18,7.2-14.41,10-44-2-64ZM112.09,68.84c.04,10.49-4.8,21.82-8.6,25.62-6.65,6.65-16.57,6.47-22.37,3.35-4.52-2.43-7.41-5.89-7.41-11.91,0-11.06,7.91-17.92,9.83-27.55s-1.57-23.66-.45-23.52c7.6.95,14,3,18,7,6,6,10.95,15.03,11,27Z"/>
  </g>
</svg>